
<svg width="458px" height="512px" viewBox="0 0 458 512" version="1.1" xmlns="http://www.w3.org/2000/svg" xmlns:xlink="http://www.w3.org/1999/xlink">
	<g id="Page-1" stroke="none" stroke-width="1" fill="none" fill-rule="evenodd">
		<g id="Group" fill="#FFFFFF" fill-rule="nonzero">
			<path d="M165.925657,512 C128.655657,512 93.5056573,500.11 64.2756573,477.61 C58.8156573,473.41 53.5656573,468.82 48.6656573,463.98 C14.5456573,430.26 -2.62434272,385.35 0.32565728,337.52 C2.55565728,301.37 17.1156573,266.52 41.3456573,239.39 C73.4356573,203.46 117.675657,183.67 165.935657,183.67 C174.225657,183.67 182.595657,184.29 190.835657,185.51 L203.635657,187.41 L203.635657,301 L183.925657,294.49 C178.185657,292.59 172.215657,291.63 166.175657,291.63 C150.915657,291.63 136.625657,297.61 125.935657,308.46 C115.295657,319.26 109.565657,333.54 109.785657,348.69 C110.075657,368.22 120.365657,385.92 137.305657,396.06 C145.105657,400.72 153.985657,403.45 163.005657,403.95 C170.125657,404.34 177.155657,403.41 183.915657,401.18 C207.025657,393.55 222.555657,372.11 222.555657,347.84 L222.655657,230.04 L222.655657,0 L331.215657,0 L331.345657,14.86 C331.405657,21.59 332.095657,28.32 333.395657,34.84 C338.495657,60.48 352.875657,83.33 373.885657,99.17 C392.535657,113.24 414.795657,120.67 438.235657,120.67 C438.785657,120.67 438.785657,120.67 443.795657,121.02 L457.745657,122 L457.745657,214 L457.745657,229 L452.745657,228.99 L442.775657,228.99 C442.695657,228.99 442.615657,228.99 442.525657,228.99 L437.735657,228.99 C437.715657,228.99 437.685657,228.99 437.655657,228.99 C408.745657,228.99 381.655657,223.48 354.805657,212.15 C346.805657,208.77 339.015657,204.91 331.495657,200.6 L331.835657,348.41 C331.655657,392.13 314.375657,433.14 283.185657,463.97 C257.875657,488.98 225.935657,504.96 190.815657,510.16 C182.625657,511.38 174.255657,512 165.925657,512 Z M165.925657,213.67 C126.335657,213.67 90.0356573,229.9 63.7156573,259.37 C43.9556573,281.5 32.0756573,309.91 30.2556573,339.36 C27.8556573,378.41 41.8756573,415.09 69.7456573,442.63 C73.7756573,446.61 78.0856573,450.38 82.5656573,453.83 C106.505657,472.26 135.335657,482 165.925657,482 C172.785657,482 179.675657,481.49 186.425657,480.49 C215.195657,476.23 241.365657,463.14 262.105657,442.64 C287.585657,417.46 301.695657,383.99 301.845657,348.39 L301.375657,142 L325.605657,160.69 C338.115657,170.34 351.875657,178.36 366.485657,184.53 C386.455657,192.96 406.585657,197.64 427.735657,198.75 L427.735657,150.3 C401.595657,148.34 376.905657,139.05 355.815657,123.14 C328.915657,102.86 310.505657,73.58 303.965657,40.71 C303.265657,37.18 302.695657,33.61 302.275657,30.01 L252.645657,30.01 L252.645657,230.05 L252.545657,347.85 C252.545657,385.08 228.745657,417.96 193.315657,429.66 C182.985657,433.07 172.235657,434.49 161.355657,433.9 C147.495657,433.14 133.855657,428.95 121.895657,421.8 C95.9656573,406.29 80.2156573,379.12 79.7756573,349.13 C79.4356573,325.89 88.2256573,303.97 104.545657,287.4 C120.915657,270.78 142.795657,261.63 166.155657,261.63 C168.655657,261.63 171.135657,261.74 173.615657,261.95 L173.615657,213.88 C171.055657,213.74 168.485657,213.67 165.925657,213.67 Z" id="Shape"></path>
		</g>
	</g>
</svg>